<?xml version="1.0" encoding="UTF-8"?>
<svg width="400" height="400" viewBox="0 0 400 400" xmlns="http://www.w3.org/2000/svg">
  <!-- Background circle -->
  <circle cx="200" cy="200" r="180" fill="#fff7ed" stroke="#ea580c" stroke-width="4"/>
  
  <!-- Ganesha's face -->
  <path d="M200 100 C 150 100, 120 150, 120 200 C 120 250, 150 300, 200 300 C 250 300, 280 250, 280 200 C 280 150, 250 100, 200 100" 
        fill="#fed7aa" stroke="#ea580c" stroke-width="2"/>
  
  <!-- Trunk -->
  <path d="M200 200 C 200 220, 180 240, 160 250 C 140 260, 130 270, 130 280" 
        fill="none" stroke="#ea580c" stroke-width="4" stroke-linecap="round"/>
  
  <!-- Eyes -->
  <circle cx="160" cy="180" r="10" fill="#ea580c"/>
  <circle cx="240" cy="180" r="10" fill="#ea580c"/>
  
  <!-- Tusk -->
  <path d="M220 220 L 240 210" stroke="#ea580c" stroke-width="4" stroke-linecap="round"/>
  
  <!-- Crown -->
  <path d="M160 100 L 200 60 L 240 100" fill="#ea580c"/>
  
  <!-- Decorative elements -->
  <circle cx="200" cy="150" r="5" fill="#ea580c"/>
  <circle cx="180" cy="140" r="3" fill="#ea580c"/>
  <circle cx="220" cy="140" r="3" fill="#ea580c"/>
</svg> 